<?xml version="1.0" encoding="utf-8"?>
<!-- Generator: Adobe Illustrator 24.1.2, SVG Export Plug-In . SVG Version: 6.00 Build 0)  -->
<svg version="1.1" id="Layer_1" xmlns="http://www.w3.org/2000/svg" xmlns:xlink="http://www.w3.org/1999/xlink" x="0px" y="0px"
	 viewBox="0 0 2136 500" style="enable-background:new 0 0 2136 500;" xml:space="preserve">
<style type="text/css">
	.st0{fill:#FFFFFF;fill-opacity:0.32;}
	.st1{fill:#FFFFFF;}
</style>
<path class="st0" d="M582.5,81L582.5,81c3,0,5.5,2.5,5.5,5.5v327c0,3-2.5,5.5-5.5,5.5l0,0c-3,0-5.5-2.5-5.5-5.5v-327
	C577,83.5,579.5,81,582.5,81z"/>
<path class="st1" d="M875.3,209.5c-5.4,9.7-13,17.3-23,22.8c-10,5.5-21.6,8.3-34.8,8.3h-52.8V113.9h52.8c13.2,0,24.9,2.7,34.8,8.1
	c10,5.4,17.6,12.8,23,22.4c5.4,9.5,8.1,20.4,8.1,32.6C883.4,189,880.7,199.8,875.3,209.5z M835.2,197.9c5.2-4.9,7.9-11.9,7.9-20.9
	c0-9.1-2.6-16-7.9-20.9c-5.3-4.9-12.4-7.3-21.3-7.3h-9.5v56.6h9.5C822.9,205.2,830,202.8,835.2,197.9z"/>
<path class="st1" d="M937.4,145.4v15.8h39.4v29.9h-39.4V209h44.8v31.7h-84.5V113.9h84.5v31.5H937.4z"/>
<path class="st1" d="M1086.7,113.9v31.5H1037V163h35.8v29.9H1037v47.8h-39.7V113.9H1086.7z"/>
<path class="st1" d="M1139.9,145.4v15.8h39.4v29.9h-39.4V209h44.7v31.7h-84.5V113.9h84.5v31.5H1139.9z"/>
<path class="st1" d="M1321.2,240.7h-39.7l-42.1-63.7v63.7h-39.7V113.9h39.7l42.1,64.8v-64.8h39.7V240.7z"/>
<path class="st1" d="M1431.4,222.9c-3.8,5.8-9.2,10.5-16.4,13.9c-7.2,3.4-15.7,5.1-25.6,5.1c-15.2,0-27.7-3.5-37.5-10.7
	c-9.8-7.1-15.2-17.5-16-31.2h42.2c0.6,7.3,3.8,10.9,9.7,10.9c2,0,3.7-0.5,4.9-1.6s1.9-2.6,1.9-4.7c0-3-1.5-5.3-4.6-7.1
	c-3-1.7-8-3.7-14.8-6c-8-2.6-14.7-5.3-20-8.1c-5.3-2.7-9.9-6.8-13.9-12.2c-3.9-5.4-5.9-12.4-5.9-20.9c0-8.2,2.1-15.2,6.4-21
	c4.2-5.8,10-10.2,17.4-13.2c7.3-3,15.6-4.5,24.8-4.5c15.2,0,27.2,3.5,36.2,10.6c9,7,13.8,17.2,14.7,30.4h-42.8
	c-0.6-6.7-3.3-10-8.2-10c-1.7,0-3,0.5-4.1,1.5c-1.1,1-1.6,2.5-1.6,4.6c0,2.7,1.5,5,4.6,6.7c3,1.7,7.8,3.7,14.2,6
	c8.1,2.9,14.8,5.7,20.1,8.5c5.3,2.8,10,6.9,14,12.4c4,5.4,6,12.4,6,20.9C1437,210.5,1435.1,217.1,1431.4,222.9z"/>
<path class="st1" d="M1490.7,145.4v15.8h39.4v29.9h-39.4V209h44.8v31.7H1451V113.9h84.5v31.5H1490.7z"/>
<path class="st1" d="M867.4,333.9c4.2,5.5,6.4,12,6.4,19.2c0,11.1-3.7,19.7-11,25.7c-7.3,6-17.9,9-31.6,9h-66.4V261.1h64.6
	c12.9,0,23,2.8,30.4,8.4c7.4,5.6,11.1,13.8,11.1,24.5c0,7.4-1.9,13.6-5.8,18.7c-3.9,5.1-9,8.4-15.5,10.1
	C857.2,324.7,863.1,328.3,867.4,333.9z M804.4,310.5h15.4c3.6,0,6.2-0.7,8-2.1c1.7-1.4,2.6-3.6,2.6-6.6c0-3.1-0.9-5.4-2.6-6.9
	c-1.7-1.5-4.4-2.2-8-2.2h-15.4V310.5z M830.5,353.9c1.7-1.4,2.6-3.6,2.6-6.7c0-6.1-3.5-9.1-10.6-9.1h-18.1V356h18.1
	C826.1,356,828.8,355.3,830.5,353.9z"/>
<path class="st1" d="M981.7,267.3c9.9,5.5,17.7,13.3,23.5,23.2c5.8,9.9,8.7,21.1,8.7,33.5c0,12.4-2.9,23.6-8.7,33.5
	c-5.8,9.9-13.7,17.7-23.6,23.3c-10,5.6-20.9,8.4-32.7,8.4c-11.9,0-22.9-2.8-32.8-8.4c-10-5.6-17.9-13.4-23.7-23.3
	c-5.8-9.9-8.8-21.1-8.8-33.5c0-12.4,2.9-23.6,8.8-33.5c5.8-9.9,13.8-17.6,23.7-23.2c10-5.5,20.9-8.3,32.8-8.3
	C960.8,259,971.7,261.8,981.7,267.3z M930.5,303.3c-4.3,5.1-6.4,12-6.4,20.7c0,8.6,2.1,15.4,6.4,20.5c4.3,5.1,10.4,7.6,18.4,7.6
	c7.9,0,14-2.5,18.3-7.6c4.3-5.1,6.4-11.9,6.4-20.5c0-8.7-2.1-15.6-6.4-20.7c-4.3-5.1-10.4-7.6-18.3-7.6
	C940.9,295.7,934.8,298.2,930.5,303.3z"/>
<path class="st1" d="M1127.7,261.1v31.5h-33.7v95.2h-39.7v-95.2H1021v-31.5H1127.7z"/>
<path class="st1" d="M276.8,98.1c-5,5-6.7,10.4-7,13.7c-4.7-5.4-15.4-10.4-31.5-10.4c-19.1,0-35.5,4-49.2,17.4
	c-13.7,13.7-21.1,27.8-21.1,58.6l0.1,35.5H168l0,94.9c0,31.8,11.4,58.8,34.1,81.9c22.7,22.7,50.1,34.1,81.9,34.1
	c32.1,0,59.5-11.4,82.6-34.1c22.7-23.1,33.8-50.1,33.8-81.9v-25l0-70v-53.9c0-29.8-8.4-47.9-21.8-60.9
	c-13.1-13.4-31.8-21.1-51.5-21.1C306.9,77.1,290.8,84.1,276.8,98.1z M328.4,284.8v7.4c0.3,16.7,0.7,33.1-13,46.8
	c-9,9.4-20.1,13-30.7,13c-11.4,0-21.7-4-30.7-12.4c-9-7.7-13.7-18.7-13.7-31.8v-23.1L328.4,284.8z M221.6,177.5
	c0-9.4,7.4-16.7,16.7-16.7c4.7,0,9,2,12,5c2.7,2.7,5,7.4,5,14.4l0,32.8h-33.8L221.6,177.5z M339.7,147c3,3,5.4,8,5.4,16.4l0,49.5
	l-35.5,0v-53.9c0-9.4,7.7-17.4,17.4-17.4C332,141.7,336.4,143.7,339.7,147z"/>
</svg>
