<?xml version="1.0" encoding="utf-8"?>
<!-- Generator: Adobe Illustrator 24.1.2, SVG Export Plug-In . SVG Version: 6.00 Build 0)  -->
<svg version="1.1" id="Layer_1" xmlns="http://www.w3.org/2000/svg" xmlns:xlink="http://www.w3.org/1999/xlink" x="0px" y="0px"
	 viewBox="0 0 500 500" style="enable-background:new 0 0 500 500;" xml:space="preserve">
<style type="text/css">
	.st0{fill:#FFFFFF;}
</style>
<path class="st0" d="M240.8,60.1c-6.3,6.3-8.3,12.9-8.8,17.1c-5.8-6.7-19.2-12.9-39.2-12.9c-23.8,0-44.2,5-61.3,21.7
	c-17.1,17.1-26.3,34.6-26.3,73l0.1,44.2h-0.1l0,118.3c0,39.6,14.2,73.3,42.5,102.1c28.3,28.3,62.5,42.5,102.1,42.5
	c40,0,74.2-14.2,102.9-42.5c28.3-28.7,42.1-62.5,42.1-102.1v-31.1l0-87.2l0-67.2c0-37.1-10.4-59.7-27.1-75.9
	c-16.3-16.7-39.6-26.3-64.3-26.3C278.4,33.8,258.3,42.6,240.8,60.1z M305.2,292.8v9.2c0.4,20.8,0.8,41.2-16.2,58.3
	c-11.2,11.7-25,16.2-38.3,16.2c-14.2,0-27.1-5-38.3-15.4c-11.2-9.6-17.1-23.3-17.1-39.6l0-28.7L305.2,292.8z M172,159
	c0-11.7,9.2-20.9,20.9-20.9c5.8,0,11.3,2.5,15,6.3c3.3,3.3,6.3,9.2,6.3,17.9l0,40.9H172L172,159z M319.3,121
	c3.8,3.8,6.7,10,6.7,20.4l0,61.8l-44.2,0l0-67.2c0-11.7,9.6-21.7,21.7-21.7C309.7,114.4,315.1,116.9,319.3,121z"/>
</svg>
