<svg id="Layer_1" data-name="Layer 1" xmlns="http://www.w3.org/2000/svg" xmlns:xlink="http://www.w3.org/1999/xlink" viewBox="0 0 16 16"><defs><style>.cls-1{fill:#323234;}.cls-2{fill:url(#linear-gradient);}</style><linearGradient id="linear-gradient" x1="17.36" y1="16.98" x2="-0.84" y2="-1.28" gradientUnits="userSpaceOnUse"><stop offset="0.51" stop-color="#9147ff"/><stop offset="0.99" stop-color="#fff"/></linearGradient></defs><circle class="cls-1" cx="8" cy="8" r="8"/><path class="cls-2" d="M7.76,3a.77.77,0,0,0-.23.45,1.35,1.35,0,0,0-1-.34,2.13,2.13,0,0,0-1.6.57,2.3,2.3,0,0,0-.69,1.91V6.78h0V9.87a3.69,3.69,0,0,0,1.11,2.68A3.66,3.66,0,0,0,8,13.66a3.77,3.77,0,0,0,3.8-3.79V5a2.54,2.54,0,0,0-.71-2A2.35,2.35,0,0,0,9.4,2.34,2.2,2.2,0,0,0,7.76,3ZM9.45,9.12v.24A1.88,1.88,0,0,1,9,10.89a1.36,1.36,0,0,1-1,.42,1.47,1.47,0,0,1-1-.4,1.32,1.32,0,0,1-.44-1V9.12ZM6,5.62a.54.54,0,0,1,.54-.55.57.57,0,0,1,.4.17.67.67,0,0,1,.16.47V6.78H6Zm3.85-1a.73.73,0,0,1,.18.54V6.78H8.83V5a.57.57,0,0,1,1-.4Z"/></svg>